<?xml version="1.0" encoding="utf-8"?>
<!-- Generator: Adobe Illustrator 22.1.0, SVG Export Plug-In . SVG Version: 6.00 Build 0)  -->
<svg version="1.1" id="Слой_1" xmlns="http://www.w3.org/2000/svg" xmlns:xlink="http://www.w3.org/1999/xlink" x="0px" y="0px"
	 viewBox="0 0 512 512" style="enable-background:new 0 0 512 512;" xml:space="preserve">
<style type="text/css">
	.st0{fill:#8DBCD2;}
</style>
<g>
	<path class="st0" d="M416.7,322.8c-4.6,0-8.4-3.8-8.4-8.4v-3.2c0-9.8-14-19.5-28.3-19.5h-34.4c-4.6,0-8.4-3.8-8.4-8.4
		s3.8-8.4,8.4-8.4h34.4c21.4,0,45.2,14.9,45.2,36.3v3.2C425.1,319,421.3,322.8,416.7,322.8z"/>
	<path class="st0" d="M383,220.1c-0.2,0-0.5,0-0.7,0c-4.6-0.4-8.1-4.4-7.7-9.1l4.2-51.4c0-29-22.5-53.1-50-53.1h-43.1
		c-27.6,0-50,24.2-50,53.8l4.2,50.7c0.4,4.6-3.1,8.7-7.7,9.1c-4.6,0.4-8.7-3.1-9.1-7.7l-4.2-51.4c0-39.7,29.9-71.4,66.8-71.4h43.1
		c36.9,0,66.8,31.7,66.8,70.7l-4.2,52.1C391,216.8,387.4,220.1,383,220.1z"/>
	<path class="st0" d="M307.3,300.1c-10,0-20-1.6-29.1-4.6c-4.4-1.5-6.8-6.3-5.3-10.7c1.5-4.4,6.3-6.8,10.7-5.3
		c7.3,2.5,15.5,3.8,23.7,3.8c19.1,0,36.7-6.9,46.1-18c12.7-15.2,21.3-36.8,21.3-53.9v-33.9c0-4.4-0.9-7.4-2.7-8.8
		c-6.3-4.9-26.5,0.2-44.3,4.7c-16.3,4.1-33.1,8.4-48.3,8.4c-18.9,0-31.7-6.8-39.3-11.5c-0.1,1.9-0.1,4.2-0.1,7.2v33.9
		c0,12.3,4.6,27.6,12.2,40.9c2.3,4,0.9,9.2-3.1,11.5c-4,2.3-9.2,0.9-11.5-3.1c-9.2-16-14.5-34-14.5-49.3v-33.9
		c0-14.3,0.3-22.6,7-26.3c5.9-3.3,11.6,0.2,16.5,3.4c6.6,4.2,16.5,10.4,32.8,10.4c13.1,0,28.9-4,44.1-7.9
		c24.6-6.3,45.9-11.7,58.8-1.7c6.1,4.7,9.2,12.2,9.2,22v33.9c0,21-9.9,46.4-25.2,64.7C353.6,291.1,331.5,300.1,307.3,300.1z"/>
	<path class="st0" d="M384.1,404.3c-3.8,0-7.3-2.7-8.2-6.6c-1-4.5,1.8-9,6.4-10.1l99.9-22.4c3.7-0.7,6.6-2.5,8.5-5.3
		c1.9-2.8,2.7-6.1,2.1-9.4c-0.8-4.4-3.9-8.1-8.1-9.7c-4.4-1.6-6.6-6.5-5-10.8c1.6-4.4,6.5-6.6,10.8-5c9.8,3.6,17,12.3,18.8,22.6
		c1.4,7.8-0.4,15.6-4.9,22c-4.5,6.4-11.3,10.7-19,12.1l-99.5,22.3C385.3,404.3,384.7,404.3,384.1,404.3z"/>
	<path class="st0" d="M270.2,451.6h-63.9c-0.6,0-1.2-0.1-1.8-0.2l-75.7-16.8c-4.5-1-7.4-5.5-6.4-10c1-4.5,5.5-7.4,10-6.4l74.8,16.6
		h63c32.8,0,65.1-11.3,90.7-31.8c0.2-0.2,0.5-0.3,0.7-0.5l124.6-80.1c0.4-0.3,0.8-0.5,1.3-0.7c3.1-1.3,5.5-3.8,6.8-6.9
		c1.3-3.1,1.2-6.6-0.1-9.7c-2.7-6.4-10.1-9.4-16.6-6.7l-125,51.6c-1,0.4-2.1,0.6-3.2,0.6H189.4c-3,0-5.8-1.6-7.3-4.3
		c-1.5-2.6-1.4-5.9,0.1-8.5l25.2-42.1c1.5-2.5,4.3-4.1,7.2-4.1h33.7c15.7,0,28.9-10.7,32.6-25.2h-88.8L77.4,350.6
		c-3.8,2.7-9,1.9-11.8-1.8c-2.7-3.7-1.9-9,1.8-11.8l117-85.8c1.4-1.1,3.2-1.6,5-1.6h101c4.6,0,8.4,3.8,8.4,8.4
		c0,27.8-22.7,50.5-50.5,50.5h-28.9l-15.2,25.2h143.4l123.4-50.9c14.9-6.3,32.2,0.7,38.5,15.6c3.1,7.2,3.1,15.2,0.2,22.5
		c-2.9,7.1-8.2,12.6-15.1,15.8l-123.7,79.5C342.5,439.1,306.7,451.6,270.2,451.6z"/>
	<path class="st0" d="M91.1,499.2c-0.4,0-0.9,0-1.3-0.1c-2.2-0.4-4.2-1.6-5.5-3.4L1.6,381.1c-1.3-1.8-1.8-4.1-1.5-6.3
		c0.4-2.2,1.6-4.2,3.4-5.5L58.1,330c3.8-2.7,9-1.9,11.8,1.9l82.6,114.6c2.7,3.8,1.9,9-1.9,11.8L96,497.6
		C94.5,498.7,92.8,499.2,91.1,499.2z M20.2,378.1L93,479l41-29.5l-72.8-101L20.2,378.1z"/>
	<path class="st0" d="M113.7,443.2c0,9.3-7.5,16.8-16.8,16.8S80,452.5,80,443.2c0-9.3,7.5-16.8,16.8-16.8S113.7,433.9,113.7,443.2z"
		/>
	<path class="st0" d="M307.3,64.4c-4.7,0-8.4-3.8-8.4-8.4V22.3c0-4.7,3.8-8.4,8.4-8.4c4.6,0,8.4,3.8,8.4,8.4V56
		C315.7,60.7,311.9,64.4,307.3,64.4z"/>
	<path class="st0" d="M340.9,64.4c-2.2,0-4.3-0.8-5.9-2.5c-3.3-3.3-3.3-8.6,0-11.9l29.5-29.5c3.3-3.3,8.6-3.3,11.9,0
		c3.3,3.3,3.3,8.6,0,11.9L346.9,62C345.2,63.6,343.1,64.4,340.9,64.4z"/>
	<path class="st0" d="M273.6,64.4c-2.2,0-4.3-0.8-5.9-2.5l-25.2-25.2c-3.3-3.3-3.3-8.6,0-11.9c3.3-3.3,8.6-3.3,11.9,0l25.2,25.2
		c3.3,3.3,3.3,8.6,0,11.9C277.9,63.6,275.7,64.4,273.6,64.4z"/>
</g>
</svg>
