<?xml version="1.0" encoding="utf-8"?>
<!-- Generator: Adobe Illustrator 22.1.0, SVG Export Plug-In . SVG Version: 6.00 Build 0)  -->
<svg version="1.1" id="Capa_1" xmlns="http://www.w3.org/2000/svg" xmlns:xlink="http://www.w3.org/1999/xlink" x="0px" y="0px"
	 viewBox="0 0 512 512" style="enable-background:new 0 0 512 512;" xml:space="preserve">
<style type="text/css">
	.st0{fill:#8DBCD2;}
</style>
<g>
	<g>
		<g>
			<path class="st0" d="M512,396.8l-0.1-155.7c0-20-16.3-36.2-36.3-36.3c-17.6,0-32.7,12.6-35.8,30l-20.1,114.1
				c-8.1-1.1-16.4,1-23.1,5.7l-68.7,48.3c-2.3,1.6-3.6,4.2-3.6,7v93.6c0,4.7,3.8,8.5,8.5,8.5h85.3c4.7,0,8.5-3.8,8.5-8.5v-10.8
				l56.2-35.8C501.8,442.8,512.7,420.4,512,396.8z M473.5,442.6L473.5,442.6l-59.9,38.2c-2.5,1.6-3.9,4.3-3.9,7.2v6.9h-68.3v-80.6
				l65.1-45.8c7.1-5,16.9-3.3,21.8,3.8c4.9,6.9,3.4,16.5-3.4,21.5l-45.9,34.4l10.2,13.6l45.9-34.4c14.5-10.9,17.4-31.4,6.5-45.8
				c-0.9-1.2-1.9-2.4-3-3.5c-0.9-0.9-1.8-1.7-2.8-2.5l20.8-118c1.8-10.5,11.8-17.5,22.3-15.6c9.2,1.6,15.9,9.6,15.9,18.9l0.1,155.7
				C495.6,414.6,487.6,431.7,473.5,442.6z"/>
		</g>
	</g>
	<g>
		<g>
			<path class="st0" d="M184.1,402.9l-68.7-48.3c-6.7-4.7-15-6.8-23.1-5.7L72.2,234.8c-3.5-19.7-22.3-32.9-42.1-29.4
				c-17.3,3.1-30,18.1-30,35.7L0,396.8c-0.7,23.7,10.3,46.2,29.3,60.2l56,35.7v10.8c0,4.7,3.8,8.5,8.5,8.5h85.3
				c4.7,0,8.5-3.8,8.5-8.5v-93.6C187.7,407.1,186.4,404.5,184.1,402.9z M170.7,494.9h-68.3V488c0-2.9-1.5-5.6-3.9-7.2l-59.8-38
				c-14.3-10.9-22.3-28-21.6-45.9l0.1-155.7c0-10.6,8.6-19.2,19.3-19.2c9.3,0,17.3,6.7,18.9,15.9l20.8,118c-1,0.8-1.9,1.6-2.8,2.5
				c-12.8,12.8-12.8,33.5,0,46.3c1.1,1.1,2.3,2.1,3.5,3l45.9,34.4l10.2-13.6l-45.9-34.4c-6.9-5.2-8.3-15-3.1-21.9
				c5.1-6.8,14.6-8.3,21.5-3.4l65.1,45.8L170.7,494.9L170.7,494.9z"/>
		</g>
	</g>
	<g>
		<g>
			<path class="st0" d="M256,0h-0.5l0.5,17.1c10.4,0,20.9,1,31.1,3l3.3-16.7C279,1.1,267.5,0,256,0z"/>
		</g>
	</g>
	<g>
		<g>
			<path class="st0" d="M220.5,3.5c-11.5,2.3-22.8,5.8-33.6,10.3l6.6,15.7c9.8-4.1,20-7.2,30.4-9.3L220.5,3.5z"/>
		</g>
	</g>
	<g>
		<g>
			<path class="st0" d="M370.7,293.8c-7.5,7.5-15.7,14.3-24.5,20.2l9.5,14.2c9.7-6.5,18.8-14,27.1-22.3L370.7,293.8z"/>
		</g>
	</g>
	<g>
		<g>
			<path class="st0" d="M324,13.4l-6.5,15.8c9.8,4,19.2,9,28.1,14.9l9.4-14.2C345.2,23.4,334.9,17.9,324,13.4z"/>
		</g>
	</g>
	<g>
		<g>
			<path class="st0" d="M418.1,179.2c0,10.6-1,21.2-3.1,31.6l16.7,3.3c2.3-11.5,3.4-23.2,3.4-34.9v-0.7L418.1,179.2z"/>
		</g>
	</g>
	<g>
		<g>
			<path class="st0" d="M382.2,52l-12,12.1c7.5,7.5,14.3,15.7,20.3,24.5l14.1-9.5C398,69.4,390.6,60.3,382.2,52z"/>
		</g>
	</g>
	<g>
		<g>
			<path class="st0" d="M318.2,329c-9.8,4.1-20,7.2-30.4,9.2l3.3,16.7c11.5-2.3,22.8-5.7,33.6-10.2L318.2,329z"/>
		</g>
	</g>
	<g>
		<g>
			<path class="st0" d="M421.3,110l-15.7,6.6c4.1,9.8,7.2,20,9.3,30.4l16.7-3.4C429.3,132,425.8,120.8,421.3,110z"/>
		</g>
	</g>
	<g>
		<g>
			<path class="st0" d="M405.8,241.2c-4.1,9.8-9.1,19.2-15,28l14.2,9.5c6.5-9.8,12.1-20.1,16.6-31L405.8,241.2z"/>
		</g>
	</g>
	<g>
		<g>
			<path class="st0" d="M256,341.3c-10.6,0-21.1-1-31.5-3l-3.3,16.7c11.4,2.2,23.1,3.4,34.7,3.4h0.2L256,341.3z"/>
		</g>
	</g>
	<g>
		<g>
			<path class="st0" d="M121.3,269.5l-14.2,9.5c6.5,9.7,14,18.8,22.3,27.1l12-12.1C134,286.5,127.3,278.3,121.3,269.5z"/>
		</g>
	</g>
	<g>
		<g>
			<path class="st0" d="M156,30.5c-9.7,6.6-18.8,14-27.1,22.4l12.1,12c7.5-7.5,15.7-14.3,24.5-20.2L156,30.5z"/>
		</g>
	</g>
	<g>
		<g>
			<path class="st0" d="M80.2,144.7c-2.2,11.4-3.3,23-3.3,34.6v0.4l17.1-0.4c0-10.5,1-21,3-31.3L80.2,144.7z"/>
		</g>
	</g>
	<g>
		<g>
			<path class="st0" d="M106.8,80c-6.5,9.8-12,20.1-16.5,31l15.8,6.5c4-9.8,9-19.2,14.9-28L106.8,80z"/>
		</g>
	</g>
	<g>
		<g>
			<path class="st0" d="M97,211.2l-16.7,3.3c2.3,11.5,5.7,22.8,10.2,33.6l15.7-6.6C102.2,231.7,99.1,221.6,97,211.2z"/>
		</g>
	</g>
	<g>
		<g>
			<path class="st0" d="M166.1,314.2l-9.5,14.2c9.8,6.5,20.1,12,31,16.5l6.5-15.8C184.3,325.1,175,320.1,166.1,314.2z"/>
		</g>
	</g>
	<g>
		<g>
			<path class="st0" d="M384,145.1c0-26.2-16.3-54.3-43.1-59c-2.6-29.1-26.8-51.5-56-51.9c-10.2,0-20.1,2.7-28.8,8
				c-8.7-5.2-18.7-8-28.8-8c-30.2,0.4-55.1,23.6-57.7,53.7c-24.9,7.8-41.8,31.1-41.5,57.2c0,12.2,3.6,24.1,10.5,34.1
				c-6.8,10.1-10.5,22-10.5,34.1c0,26.2,16.3,54.3,43.1,59c2.6,29.1,26.8,51.5,56,51.9c10.2,0,20.1-2.7,28.8-8
				c8.7,5.2,18.7,8,28.8,8c30.2-0.4,55.1-23.6,57.7-53.7c24.9-7.8,41.8-31.1,41.5-57.2c0-12.2-3.6-24.1-10.5-34.1
				C380.4,169.1,384,157.2,384,145.1z M247.5,111c0,9.4-7.6,17.1-17.1,17.1c-9.4,0-17.1-7.6-17.1-17.1h-17.1
				c0,18.8,15.3,34.1,34.1,34.1c6,0,11.9-1.7,17.1-4.7v161.1c-6.1,3.8-13.1,5.8-20.3,5.8c-20-0.4-36.6-15.6-38.8-35.5
				c18.1-5,28.7-23.8,23.7-41.9c-4.1-14.8-17.6-25-32.9-25v17.1c9.4,0,17.1,7.6,17.1,17.1c0,9.4-7.6,17.1-17.1,17.1
				c-20.4,0-34.1-22.1-34.1-42.7c0-10.5,3.7-20.6,10.6-28.5c2.8-3.2,2.8-8,0-11.2c-6.8-7.9-10.6-18.1-10.6-28.5
				c-0.4-20.5,14-38.2,34.2-42c4.2-1.1,7.1-4.9,7-9.2c-0.5-23.1,17.8-42.1,40.9-42.7c7.2,0,14.2,2,20.3,5.8L247.5,111L247.5,111z
				 M356.3,184.8c6.8,7.9,10.6,18.1,10.6,28.5c0.4,20.5-14,38.2-34.2,42c-4.2,1.1-7.1,4.9-7,9.2c0.5,23.1-17.8,42.1-40.9,42.7
				c-7.2,0-14.2-2-20.3-5.8v-96.6c0-9.4,7.6-17.1,17.1-17.1s17.1,7.6,17.1,17.1h17.1c0-18.8-15.3-34.1-34.1-34.1
				c-6,0-11.9,1.7-17.1,4.7V57c6.1-3.8,13.1-5.8,20.3-5.8c20,0.4,36.6,15.6,38.8,35.5c-18.1,5-28.7,23.8-23.7,41.9
				c4.1,14.8,17.6,25,32.9,25v-17.1c-9.4,0-17.1-7.6-17.1-17.1s7.6-17.1,17.1-17.1c20.4,0,34.1,22.1,34.1,42.7
				c0,10.5-3.7,20.6-10.6,28.5C353.6,176.8,353.6,181.6,356.3,184.8z"/>
		</g>
	</g>
</g>
</svg>
