<?xml version="1.0" encoding="utf-8"?>
<!-- Generator: Adobe Illustrator 22.1.0, SVG Export Plug-In . SVG Version: 6.00 Build 0)  -->
<svg version="1.1" id="Layer_1" xmlns="http://www.w3.org/2000/svg" xmlns:xlink="http://www.w3.org/1999/xlink" x="0px" y="0px"
	 viewBox="0 0 512 512" style="enable-background:new 0 0 512 512;" xml:space="preserve">
<style type="text/css">
	.st0{fill:#8DBCD2;}
</style>
<g>
	<g>
		<g>
			<rect x="47.3" y="37.4" class="st0" width="17.4" height="17.4"/>
		</g>
	</g>
	<g>
		<g>
			<rect x="82.1" y="37.4" class="st0" width="17.4" height="17.4"/>
		</g>
	</g>
	<g>
		<g>
			<rect x="117" y="37.4" class="st0" width="17.4" height="17.4"/>
		</g>
	</g>
	<g>
		<g>
			<path class="st0" d="M431.1,115.9h-17.4c0,14.4-11.7,26.2-26.2,26.2v17.4c14.4,0,26.2,11.7,26.2,26.2h17.4
				c0-14.4,11.7-26.2,26.2-26.2v-17.4C442.8,142.1,431.1,130.4,431.1,115.9z M422.3,159.8c-2.5-3.4-5.6-6.4-9-9c3.4-2.5,6.4-5.6,9-9
				c2.5,3.4,5.6,6.4,9,9C427.9,153.4,424.9,156.4,422.3,159.8z"/>
		</g>
	</g>
	<g>
		<g>
			<path class="st0" d="M483.4,20H466c0,14.4-11.7,26.2-26.2,26.2v17.4c14.4,0,26.2,11.7,26.2,26.2h17.4c0-14.4,11.7-26.2,26.2-26.2
				V46.2C495.1,46.2,483.4,34.4,483.4,20z M474.7,63.9c-2.5-3.4-5.6-6.4-9-9c3.4-2.5,6.4-5.6,9-9c2.5,3.4,5.6,6.4,9,9
				C480.2,57.4,477.2,60.4,474.7,63.9z"/>
		</g>
	</g>
	<g>
		<g>
			<path class="st0" d="M312.6,493.7c-87.6-7.4-187.9-40.3-268.1-87.9l-23.8-14.1c3.5-8.3,5.6-16.9,7.6-25.4
				c0.6-2.5,1.2-5.1,1.8-7.5c1.8-7.2,3.9-19,6.2-32.6c3.4-19.6,7.6-44,11.5-53.8l52.3-133.9c1.1-2.9,2.2-6.1,3.2-9.3
				c2.8-8.6,5.8-17.5,11.2-22.3c3.1-2.7,7.1-4.7,11-6.5c0.5-0.2,0.9-0.4,1.3-0.7l103.4-79.2c5.2-4,12.4-3.9,17.5,0.2l51.8,41.5
				c3.3,2.6,5.2,6.5,5.3,10.7c0.1,4.2-1.7,8.2-4.8,11L267,112.7c-5.6,4.9-14.1,4.6-19.4-0.6c-3-3-4.5-7.2-4.1-11.4
				c0.4-4.2,2.7-8,6.3-10.4l2.9-2L243,73.8l-2.9,2c-7.9,5.3-13,13.7-13.9,23.2c-0.9,9.5,2.4,18.7,9.1,25.5
				c11.7,11.7,30.7,12.4,43.2,1.4l27.8-24.3l8.6,12.8l-52.3,44.8l-62.4-7.8c1-4.5,2-8.9,3.3-13.3l-16.7-4.9c-5.9,20.1-8.6,41-8.1,62
				c0.3,11.3,1.5,22.5,2.6,33.3c1.4,12.8,2.7,24.8,2.6,37c-0.2,36.5-14.4,70.7-37.9,91.2l11.5,13.1c16.6-14.6,28.9-34.2,36.2-56.7
				c2.6-0.9,6-0.8,9.3-0.5c11.5,1,22.6,4.2,33,8.9c-4.3,6.8-7.7,14.1-10.3,21.8l16.5,5.6c2.3-6.7,5.3-13.1,9.1-19
				c0.2,0.1,0.4,0.2,0.6,0.4l8.4-12.2c16.4-18.4,40.6-31.2,68.8-35.4c42.2-6.3,81.4,8.1,102.5,37.7l14.2-10.2
				c-8.8-12.2-20.1-22.2-33.2-29.8c25.3-21,61.8-28.6,93-17.8l5.7-16.5c-39.3-13.7-85.9-2.6-115.8,26.1c-20.8-7.9-44.5-10.5-69-6.8
				c-32.6,4.9-60.7,20-79.8,41.8c-13.2-6.5-27.5-10.5-42.2-11.9c-1.9-0.2-4-0.3-6.1-0.2c1.8-9.5,2.8-19.3,2.9-29.4
				c0.1-13.2-1.3-26.3-2.7-39c-1.1-10.5-2.3-21.3-2.5-31.9c-0.2-8.8,0.3-17.5,1.3-26.2l66.9,8.4c0.4,0,0.8,0.1,1.1,0.1
				c2.1,0,4.1-0.7,5.7-2.1l61.1-52.3c3.4-2.9,4-7.8,1.6-11.5l-15.3-23c2.6-4.8,4.1-10.1,4-15.7c-0.2-9.4-4.5-18.1-11.9-24L258.6,6.9
				c-11.4-9.1-27.5-9.3-39-0.4l-98.8,76l-3.2,2.2c-4.7,2.2-10,4.9-14.5,9c-9,7.9-12.9,19.6-16.3,30c-1,2.9-1.9,5.8-2.9,8.4L31.6,266
				c-4.5,11.4-8.5,34.7-12.4,57.1c-2.2,12.7-4.3,24.7-6,31.3c-0.7,2.6-1.3,5.2-1.9,7.8c-2.4,10.3-4.8,20.1-9.6,28.4
				c-2.4,4.1-1,9.4,3.1,11.9l30.7,18.3c82.4,48.9,185.4,82.7,275.5,90.3c7,0.6,15.8,0.9,25.8,0.9c50.1,0,131-8.8,169.4-40.4
				l-11.1-13.5C455.7,490.8,356.7,497.4,312.6,493.7z"/>
		</g>
	</g>
</g>
</svg>
