<?xml version="1.0" encoding="utf-8"?>
<!-- Generator: Adobe Illustrator 22.1.0, SVG Export Plug-In . SVG Version: 6.00 Build 0)  -->
<svg version="1.1" id="Capa_1" xmlns="http://www.w3.org/2000/svg" xmlns:xlink="http://www.w3.org/1999/xlink" x="0px" y="0px"
	 viewBox="0 0 512 512" style="enable-background:new 0 0 512 512;" xml:space="preserve">
<style type="text/css">
	.st0{fill:#8DBCD2;}
</style>
<g>
	<g>
		<g>
			<path class="st0" d="M124,248.2c2.6-5.6,4-11.7,4-17.8c0-23.6-19.1-42.7-42.7-42.7s-42.7,19.1-42.7,42.7c0,6.2,1.4,12.2,4,17.8
				C19.8,252.7,0,276,0,303.2V384c0,4.7,3.8,8.5,8.5,8.5c0,0,0,0,0,0h25.6v110.9c0,4.7,3.8,8.5,8.5,8.5c0,0,0,0,0,0H128
				c4.7,0,8.5-3.8,8.5-8.5c0,0,0,0,0,0V392.5h25.6c4.7,0,8.5-3.8,8.5-8.5c0,0,0,0,0,0v-80.8C170.6,276,150.9,252.7,124,248.2z
				 M153.6,375.5h-17.1v-85.3h-17.1v204.8H93.9V375.5H76.8v119.5H51.2V290.1H34.1v85.3H17.1v-72.2c0-21.4,17.3-38.7,38.7-38.7H63
				c4.7,0,8.5-3.8,8.5-8.5c0-2.5-1.1-4.8-2.9-6.4c-5.6-4.8-8.9-11.8-8.9-19.2c0-14.1,11.5-25.6,25.6-25.6s25.6,11.5,25.6,25.6
				c0,7.4-3.2,14.4-8.9,19.2c-3.5,3.1-3.9,8.5-0.8,12c1.6,1.9,4,2.9,6.4,2.9h7.2c21.4,0,38.7,17.3,38.7,38.7V375.5z"/>
		</g>
	</g>
	<g>
		<g>
			<path class="st0" d="M426.7,34.1c-14.1,0-25.6-11.5-25.6-25.6c0-4.7-3.8-8.5-8.5-8.5S384,3.8,384,8.5c0,14.1-11.5,25.6-25.6,25.6
				c-4.7,0-8.5,3.8-8.5,8.5s3.8,8.5,8.5,8.5c14.1,0,25.6,11.5,25.6,25.6c0,4.7,3.8,8.5,8.5,8.5s8.5-3.8,8.5-8.5
				c0-14.1,11.5-25.6,25.6-25.6c4.7,0,8.5-3.8,8.5-8.5S431.4,34.1,426.7,34.1z M392.5,51.2c-2.4-3.2-5.3-6.1-8.6-8.6
				c3.2-2.4,6.1-5.3,8.6-8.6c2.4,3.2,5.3,6.1,8.6,8.6C397.8,45.1,395,48,392.5,51.2z"/>
		</g>
	</g>
	<g>
		<g>
			<path class="st0" d="M503.5,452.3C503.5,452.3,503.5,452.3,503.5,452.3h-34.1v-25.6c0-4.7-3.8-8.5-8.5-8.5c0,0,0,0,0,0h-17.1
				V215.6l67.1-117.5c2.2-3.9,1.1-8.8-2.7-11.3l-25.6-17.1c-2-1.3-4.4-1.7-6.7-1.2c-2.3,0.5-4.3,2-5.4,4L432.3,138
				c-8.6-21.9-33.3-32.8-55.3-24.2c-11.1,4.3-19.8,13.1-24.2,24.2l-38.2-65.5c-2.4-4.1-7.6-5.4-11.7-3.1c-0.2,0.1-0.3,0.2-0.4,0.3
				l-25.6,17.1c-3.7,2.5-4.9,7.4-2.7,11.3l67.1,117.5v202.5h-17.1c-4.7,0-8.5,3.8-8.5,8.5c0,0,0,0,0,0v25.6h-34.1
				c-4.7,0-8.5,3.8-8.5,8.5c0,0,0,0,0,0V512h17.1v-42.7h34.1c4.7,0,8.5-3.8,8.5-8.5c0,0,0,0,0,0v-25.6h119.5v25.6
				c0,4.7,3.8,8.5,8.5,8.5c0,0,0,0,0,0h34.1V512H512v-51.2C512,456.1,508.2,452.3,503.5,452.3z M426.7,213.3v204.8h-25.6V315.7H384
				v102.4h-25.6V213.3c0-1.5-0.4-2.9-1.1-4.2L293,96.6l11.4-7.6l55.2,94.6c1.5,2.6,4.3,4.2,7.4,4.2h3.2c4.7,0,8.5-3.8,8.5-8.5
				c0-2.5-1.1-4.8-2.9-6.4c-5.6-4.8-8.9-11.8-8.9-19.2c0-14.1,11.5-25.6,25.6-25.6s25.6,11.5,25.6,25.6c0,7.4-3.2,14.4-8.9,19.2
				c-3.5,3.1-3.9,8.5-0.8,12c1.6,1.9,4,2.9,6.4,2.9h3.2c3,0,5.8-1.6,7.4-4.2l55.2-94.6l11.4,7.6l-64.3,112.6
				C427.1,210.4,426.7,211.8,426.7,213.3z"/>
		</g>
	</g>
	<g>
		<g>
			<rect x="238.9" y="196.3" class="st0" width="17.1" height="17.1"/>
		</g>
	</g>
	<g>
		<g>
			<rect x="273.1" y="213.3" class="st0" width="17.1" height="17.1"/>
		</g>
	</g>
	<g>
		<g>
			<rect x="307.2" y="230.4" class="st0" width="17.1" height="17.1"/>
		</g>
	</g>
	<g>
		<g>
			<rect x="238.9" y="256" class="st0" width="17.1" height="17.1"/>
		</g>
	</g>
	<g>
		<g>
			<rect x="273.1" y="273.1" class="st0" width="17.1" height="17.1"/>
		</g>
	</g>
	<g>
		<g>
			<rect x="307.2" y="290.1" class="st0" width="17.1" height="17.1"/>
		</g>
	</g>
	<g>
		<g>
			<rect x="460.8" y="281.6" class="st0" width="17.1" height="17.1"/>
		</g>
	</g>
	<g>
		<g>
			<rect x="494.9" y="298.7" class="st0" width="17.1" height="17.1"/>
		</g>
	</g>
	<g>
		<g>
			<rect x="460.8" y="341.3" class="st0" width="17.1" height="17.1"/>
		</g>
	</g>
	<g>
		<g>
			<rect x="494.9" y="358.4" class="st0" width="17.1" height="17.1"/>
		</g>
	</g>
	<g>
		<g>
			<path class="st0" d="M244.4,78.8l-51.4-42.7c-3.6-3-9-2.5-12,1.1c-1.3,1.6-2,3.5-2,5.5l0.2,17H68.3c-4.7,0-8.5,3.8-8.5,8.5
				c0,0,0,0,0,0v85.3c0,4.7,3.8,8.5,8.5,8.5c0,0,0,0,0,0h34.1c4.7,0,8.5-3.8,8.5-8.5c0,0,0,0,0,0v-42.7h68.3V128
				c0,4.7,3.8,8.5,8.5,8.5c2,0,3.9-0.7,5.5-2l51.2-42.7c1.9-1.6,3.1-4,3.1-6.6C247.5,82.8,246.3,80.4,244.4,78.8z M196.3,109.8v-7.4
				c0-4.7-3.8-8.5-8.5-8.5c0,0,0,0,0,0h-85.3c-4.7,0-8.5,3.8-8.5,8.5c0,0,0,0,0,0v42.7H76.8V76.8h110.9c4.7,0,8.5-3.8,8.5-8.5
				c0,0,0-0.1,0-0.1l-0.1-7.2l29.4,24.4L196.3,109.8z"/>
		</g>
	</g>
</g>
</svg>
